<svg xmlns="http://www.w3.org/2000/svg" viewBox="0 0 884.76 203.94">
  <path d="M817.16 83.51h-31.24V56.53h31.24V13.07h34.37v43.45h33.23V83.5h-33.23v67.6c0 14.49 5.68 22.72 19.88 22.72 3.41 0 7.1-.28 10.23-.85v25.85c-3.12 1.14-11.08 2.56-20.17 2.56-28.97 0-44.31-14.49-44.31-45.45V83.51ZM713.49 198.83h34.65V0h-34.65v198.82Zm-85.77-68.74c0-27.84-15.05-46.3-35.5-46.3s-36.64 19.31-36.64 46.3c0 28.4 16.19 46.58 36.64 46.58s35.5-19.03 35.5-46.58m-106.8 0c0-48.85 31.24-73.57 63.62-73.57 20.73 0 34.08 10.79 42.32 24.14-1.14-4.55-1.14-9.09-1.14-13.63v-5.68h34.65v137.47h-34.65v-5.68c0-5.11 0-8.24 1.14-13.35-5.68 9.94-17.61 24.14-42.89 24.14-36.64 0-63.06-25-63.06-73.85m-63.05 0c0-27.84-15.05-46.87-36.36-46.87s-36.07 19.03-36.07 46.87 15.05 46.58 36.07 46.58 36.36-19.32 36.36-46.58m-71.58 49.71c.85 5.4 1.14 8.81 1.14 13.07v5.96h-34.65V0h34.65v66.46c0 4.83-.57 9.09-1.14 13.63 8.81-14.2 22.72-24.43 44.03-24.43 33.52 0 62.49 28.12 62.49 74.42s-26.13 73.57-61.92 73.57c-23.29 0-36.93-10.51-44.59-23.86m-101.12-49.14c0-29.82-14.49-46.58-35.22-46.58s-35.5 16.76-35.5 46.58 14.2 46.01 35.5 46.01 35.22-16.76 35.22-46.01m-105.66 0c0-45.16 28.97-73.85 70.44-73.85s70.44 28.69 70.44 73.85-29.54 72.71-70.44 72.71-70.44-27.55-70.44-72.71M63.62 83.51h32.66L160.2 0h-41.75L54.53 83.51H34.65V0H0v198.82h34.65v-97.14L121 198.82h45.16L63.62 83.51Z" />
</svg>
